<?xml version="1.0" encoding="UTF-8"?>
<!DOCTYPE svg PUBLIC "-//W3C//DTD SVG 1.1//EN" "http://www.w3.org/Graphics/SVG/1.1/DTD/svg11.dtd">
<!-- Creator: CorelDRAW X7 -->
<svg xmlns="http://www.w3.org/2000/svg" xml:space="preserve" width="106px" height="40px" version="1.1" style="shape-rendering:geometricPrecision; text-rendering:geometricPrecision; image-rendering:optimizeQuality; fill-rule:evenodd; clip-rule:evenodd"
viewBox="0 0 19714 7431"
 xmlns:xlink="http://www.w3.org/1999/xlink">
 <defs>
  <style type="text/css">
   <![CDATA[
    .fil0 {fill:#373435;fill-rule:nonzero}
   ]]>
  </style>
 </defs>
 <g id="Layer_x0020_1">
  <metadata id="CorelCorpID_0Corel-Layer"/>
  <polygon class="fil0" points="0,110 721,110 721,6600 3495,6600 3495,7301 0,7301 "/>
  <path id="1" class="fil0" d="M7037 1853c820,0 1501,295 2040,888 491,539 736,1178 736,1916 0,741 -259,1389 -778,1943 -517,554 -1185,831 -1998,831 -818,0 -1487,-277 -2005,-831 -519,-554 -777,-1202 -777,-1943 0,-735 245,-1372 736,-1911 539,-596 1222,-893 2046,-893zm-3 671c-569,0 -1057,208 -1466,627 -409,419 -612,927 -612,1521 0,382 93,739 278,1071 187,331 439,586 757,767 315,180 664,270 1043,270 379,0 728,-90 1043,-270 317,-181 569,-436 756,-767 185,-332 279,-689 279,-1071 0,-594 -205,-1102 -616,-1521 -409,-419 -896,-627 -1462,-627z"/>
  <polygon id="2" class="fil0" points="11664,0 12345,0 12345,1983 13427,1983 13427,2574 12345,2574 12345,7301 11664,7301 11664,2574 10733,2574 10733,1983 11664,1983 "/>
  <path id="3" class="fil0" d="M18957 5538l577 304c-190,369 -409,668 -658,895 -248,225 -527,399 -837,517 -313,119 -663,177 -1055,177 -872,0 -1551,-284 -2042,-851 -490,-568 -736,-1209 -736,-1923 0,-673 209,-1274 624,-1799 526,-670 1232,-1005 2115,-1005 910,0 1638,344 2180,1030 386,484 583,1088 589,1814l-4807 0c14,616 212,1120 594,1512 384,394 858,591 1421,591 272,0 537,-47 794,-140 257,-94 476,-217 656,-372 181,-156 376,-404 585,-750zm6 -1432c-92,-365 -225,-656 -400,-875 -177,-218 -409,-393 -698,-527 -289,-134 -593,-200 -910,-200 -526,0 -976,167 -1353,502 -278,245 -485,611 -626,1100l3987 0z"/>
 </g>
</svg>
